<svg id="Layer_1" enable-background="new 0 0 66 66" viewBox="0 0 66 66" xmlns="http://www.w3.org/2000/svg"><g><path d="m41.6 16.2v-9c1.5-.3 2.6-1.5 2.6-3.1 0-1.7-1.4-3.1-3.1-3.1h-17.6c-1.7 0-3.1 1.4-3.1 3.1s1.4 3.1 3.1 3.1v9.1c-4.1.9-7.1 4.5-7.1 8.8v25.5c0 4.9 3.9 8.9 8.8 9v3.4h-4.2c-.6 0-1 .4-1 1s.4 1 1 1h24c.6 0 1-.4 1-1s-.4-1-1-1h-4.1v-3.3c4.9-.1 8.8-4.1 8.8-9v-25.5c-.1-4.7-3.6-8.5-8.1-9zm-6.7-3.5c.6 0 1-.4 1-1s-.4-1-1-1h-4.8c-.6 0-1 .4-1 1s.4 1 1 1h1.4v3.4h-6.1v-8.8h14.2v8.9h-6.1v-3.4h1.4zm-12.5-8.6c0-.6.5-1.1 1.1-1.1h17.6c.6 0 1.1.5 1.1 1.1s-.5 1.1-1.1 1.1h-17.6c-.6.1-1.1-.4-1.1-1.1zm3 14h15.3c3.9 0 7 3.1 7 7v8.5h-29.3v-8.5c0-3.8 3.1-7 7-7zm22.2 17.5v4.4h-29.2v-4.4zm-20.4 24.1h4.8v3.3h-4.8zm6.8 3.3v-3.3h4.8v3.3zm6.6-5.3h-15.2c-3.9 0-7-3.1-7-7v-8.6h29.3v8.6c-.1 3.9-3.2 7-7.1 7z"/></g></svg>