<svg clip-rule="evenodd" fill-rule="evenodd" stroke-linejoin="round" stroke-miterlimit="2" viewBox="0 0 510 510" xmlns="http://www.w3.org/2000/svg"><path d="m24.515 213.663h-9.515c-3.866 0-7-3.134-7-7v-22.66c0-3.866 3.134-7 7-7h5.29v-33.031c0-29.696 24.073-53.769 53.769-53.769h33.799v-7.594c0-3.866 3.134-7 7-7h22.66c3.866 0 7 3.134 7 7v11.819h28.905c5.955-40.708 41.052-72.008 83.401-72.008 42.35 0 77.447 31.3 83.401 72.008h25.257v-11.819c0-3.866 3.134-7 7-7h22.66c3.866 0 7 3.134 7 7v7.594h33.799c29.696 0 53.769 24.073 53.769 53.769v33.031h5.29c3.866 0 7 3.134 7 7v22.66c0 3.866-3.134 7-7 7h-9.515v212.096c2.485 1.074 4.225 3.548 4.225 6.428v48.393c0 3.866-3.134 7-7 7h-56.843c-3.866 0-7-3.134-7-7v-48.393c0-2.88 1.74-5.354 4.225-6.428v-212.096h-9.515c-3.866 0-7-3.134-7-7v-22.66c0-3.866 3.134-7 7-7h5.29c0-6.753 0-15.957 0-15.957h-16.725v2.985c0 3.866-3.134 7-7 7h-22.66c-3.866 0-7-3.134-7-7v-7.21h-40.89c-15.362 20.733-40.007 34.182-67.768 34.182s-52.405-13.449-67.767-34.182h-44.539v7.21c0 3.866-3.134 7-7 7h-22.66c-3.866 0-7-3.134-7-7v-2.985c-6.998 0-16.725 0-16.725 0v15.957h5.29c3.866 0 7 3.134 7 7v22.66c0 3.866-3.134 7-7 7h-9.515v212.096c2.485 1.074 4.225 3.548 4.225 6.428v48.393c0 3.866-3.134 7-7 7h-56.843c-3.866 0-7-3.134-7-7v-48.393c0-2.88 1.74-5.354 4.225-6.428zm64.908-22.66h-67.423v8.66h67.423zm18.435-86.8h-33.799c-21.964 0-39.769 17.805-39.769 39.769v33.031h42.843v-22.957c0-3.866 3.134-7 7-7h23.725zm22.66 52.828v-67.422h-8.66v67.422zm42.032-48.603h-28.032v34.393h36.131c-4.973-10.462-7.853-22.107-8.099-34.393zm168.548 0c-.245 12.286-3.126 23.931-8.098 34.393h32.482v-34.393zm-77.274 68.23c35.514-3.518 63.292-33.514 63.292-69.946 0-8.724-1.593-17.079-4.503-24.79l-36.054 20.816c.172 1.3.261 2.626.261 3.974 0 14.145-9.812 26.016-22.996 29.173zm52.544-107.297c-12.442-19.782-34.469-32.941-59.544-32.941s-47.101 13.159-59.544 32.941l34.953 20.18c5.425-7.752 14.42-12.825 24.591-12.825s19.167 5.073 24.592 12.825zm-125.332 12.561c-2.91 7.711-4.503 16.066-4.503 24.79 0 36.432 27.778 66.428 63.291 69.946v-40.773c-13.183-3.157-22.995-15.028-22.995-29.173 0-1.348.089-2.674.261-3.974zm197.106 75.109v-67.422h-8.66v67.422zm87.568 19.972v-33.031c0-21.964-17.805-39.769-39.769-39.769h-33.799v42.843h23.725c3.866 0 7 3.134 7 7v22.957zm-55.133 22.66h67.423v-8.66h-67.423zm50.908 225.524v-211.524h-34.393v211.524zm-398.577 0v-211.524h-34.393v211.524zm183.916-302.48c8.829 0 15.996-7.167 15.996-15.995 0-8.829-7.167-15.996-15.996-15.996-8.828 0-15.995 7.167-15.995 15.996 0 8.828 7.167 15.995 15.995 15.995zm176.043 316.48v34.393h42.843v-34.393zm-398.577 0v34.393h42.843v-34.393zm267.168 18.018c-16.374 15.954-40.149 25.803-70.408 25.424-24.916-.311-44.162-8.929-57.727-22.606-20.066-20.232-27.754-51.931-21.92-85.466l.001-.003c5.609-32.158 17.359-48.096 28.453-77.241.663-1.74 1.991-3.144 3.691-3.902 1.7-.759 3.633-.809 5.37-.139 10.495 4.047 16.417 7.578 21.229 13.264 14.057-20.332 17.385-40.908 20.592-63.205.36-2.505 2.045-4.62 4.405-5.533 2.361-.912 5.031-.479 6.982 1.133 29.715 24.548 45.648 52.724 51.078 84.152 1.377-5.514 2.216-11.15 3.054-16.977.36-2.506 2.045-4.621 4.405-5.533 2.361-.913 5.031-.48 6.982 1.132 23.818 19.676 33.778 42.989 33.924 69.515.764-.844 1.585-1.78 2.499-2.835 1.608-1.856 4.07-2.734 6.489-2.314 2.42.42 4.442 2.077 5.329 4.367 8.504 21.942 6.837 43.626-2.99 59.758-9.64 15.826-27.153 26.633-51.438 27.009zm-20.515-119.183c-2.302-29.761-14.063-56.5-38.318-79.903-3.83 22.626-9.842 43.729-27.428 64.888-1.472 1.771-3.722 2.705-6.016 2.497s-4.338-1.532-5.468-3.539c-3.609-6.415-7.023-9.767-13.455-12.906-9.93 24.09-20.084 39.361-25.062 67.899-4.985 28.659.919 55.916 18.067 73.206 11.245 11.338 27.307 18.208 47.962 18.466 20.67.259 37.887-4.844 51.126-13.841-8.397-2.493-15.351-6.792-20.87-12.356-1.04-1.049-2.03-2.146-2.969-3.287-5.534 3.983-12.773 6.399-21.374 6.285-22.301-.294-34.955-21.513-30.012-42.431 2.413-10.246 7.582-17.83 13.559-24.683 5.099-5.847 10.837-11.088 15.331-17.514 1.508-2.158 4.1-3.286 6.707-2.921s4.789 2.162 5.647 4.651c1.096 3.18 2.092 5.939 3.035 8.394 3.768-10.766 8.732-19.415 13.52-31.992.662-1.74 1.99-3.144 3.69-3.903 1.701-.758 3.633-.808 5.37-.138 2.741 1.057 5.015 2.065 6.958 3.128zm-29.768 89.107c-4.394-9.991-6.054-21.757-4.792-34.112-2.506-4.275-4.635-8.533-6.991-14.382-2.72 2.96-5.512 5.852-8.156 8.884-4.548 5.215-8.647 10.895-10.483 18.693l-.002.006c-2.87 12.144 3.625 25.043 16.572 25.214 5.682.075 10.446-1.517 13.852-4.303zm75.471-41.543c3.152-24.422-1.773-46.041-18.706-64.404-2.53 12.537-6.708 24.399-16.603 36.305-1.473 1.771-3.722 2.705-6.016 2.497s-4.339-1.531-5.468-3.539c-1.407-2.499-2.774-4.129-4.72-5.474-5.683 13.131-11.313 22.352-14.156 38.648-2.922 16.802.391 32.819 10.445 42.956 6.515 6.569 15.845 10.486 27.812 10.635 19.661.246 34.04-7.713 41.705-20.297 6.149-10.093 7.971-22.94 5.156-36.458-2.486 2.115-5.127 3.851-9.009 6.091-2.306 1.33-5.166 1.237-7.381-.239-2.214-1.477-3.4-4.081-3.059-6.721zm-14.314-6.22c3.555 10.316 5.402 13.285 9.81 19.955 5.405 8.171 5.312 16.917 1.654 23.563-3.634 6.604-10.957 11.443-20.972 11.31-15.583-.205-24.584-14.918-21.131-29.534 1.603-6.806 5.005-11.86 8.975-16.412 3.092-3.546 6.584-6.715 9.309-10.612 1.509-2.157 4.1-3.286 6.708-2.921 2.607.365 4.789 2.162 5.647 4.651zm-8.914 15.66c-.117.126-.233.251-.35.377-3.249 3.504-6.48 7.08-7.749 12.469l-.001.006c-1.381 5.845 1.46 12.235 7.691 12.317 3.968.053 7.082-1.445 8.522-4.061 1.417-2.575 1.028-5.924-1.065-9.089l-.002-.003c-3.058-4.628-5.053-7.717-7.046-12.016z"/></svg>