<svg id="Layer_1" enable-background="new 0 0 66 66" height="512" viewBox="0 0 66 66" width="512" xmlns="http://www.w3.org/2000/svg"><g><path d="m43.18 41.99h-2.46v-3.28c0-.41-.34-.75-.75-.75h-4.22v-2.39c7.86-1.32 13.87-8.15 13.87-16.38 0-9.17-7.46-16.62-16.62-16.62s-16.62 7.46-16.62 16.62c0 8.23 6.01 15.06 13.87 16.38v2.39h-4.22c-.41 0-.75.34-.75.75v3.28h-2.46c-1.52 0-2.75 1.23-2.75 2.75v15.94c0 1.52 1.23 2.75 2.75 2.75h20.37c1.52 0 2.75-1.23 2.75-2.75v-15.94c-.01-1.52-1.24-2.75-2.76-2.75zm-25.3-22.8c0-8.34 6.78-15.12 15.12-15.12s15.12 6.78 15.12 15.12-6.78 15.13-15.12 15.13-15.12-6.79-15.12-15.13zm13.87 16.56c.41.03.83.06 1.25.06s.84-.03 1.25-.06v2.2h-2.5zm-4.97 3.71h12.44v2.5h-12.44zm17.65 21.22c0 .69-.56 1.25-1.25 1.25h-20.36c-.69 0-1.25-.56-1.25-1.25v-15.94c0-.69.56-1.25 1.25-1.25h20.37c.69 0 1.25.56 1.25 1.25v15.94z"/><path d="m64 41.99h-4c-.41 0-.75.34-.75.75v1.81h-11.07c-.41 0-.75.34-.75.75s.34.75.75.75h11.07v13.32h-11.07c-.41 0-.75.34-.75.75s.34.75.75.75h11.07v1.81c0 .41.34.75.75.75h4c.41 0 .75-.34.75-.75v-19.94c0-.42-.34-.75-.75-.75zm-.75 19.94h-2.5v-18.44h2.5z"/><path d="m45.62 19.19c0-6.96-5.66-12.62-12.62-12.62s-12.62 5.66-12.62 12.62 5.66 12.62 12.62 12.62 12.62-5.66 12.62-12.62zm-23.74 0c0-6.13 4.99-11.12 11.12-11.12s11.12 4.99 11.12 11.12-4.99 11.12-11.12 11.12-11.12-4.98-11.12-11.12z"/><path d="m35.75 24.1c0-1.25-.85-2.3-2-2.63v-6.5c0-.41-.34-.75-.75-.75s-.75.34-.75.75v6.5c-1.15.33-2 1.38-2 2.63 0 1.52 1.23 2.75 2.75 2.75s2.75-1.24 2.75-2.75zm-4 0c0-.69.56-1.25 1.25-1.25s1.25.56 1.25 1.25-.56 1.25-1.25 1.25-1.25-.56-1.25-1.25z"/><path d="m33 12.36c.41 0 .75-.34.75-.75v-1.86c0-.41-.34-.75-.75-.75s-.75.34-.75.75v1.86c0 .41.34.75.75.75z"/><path d="m30.79 11.9-.71-1.72c-.16-.38-.6-.56-.98-.41-.38.16-.56.6-.41.98l.71 1.72c.12.29.4.46.69.46.1 0 .19-.02.29-.06.39-.15.57-.59.41-.97z"/><path d="m26.85 11.99c-.29-.29-.77-.29-1.06 0s-.29.77 0 1.06l1.32 1.32c.15.15.34.22.53.22s.38-.07.53-.22c.29-.29.29-.77 0-1.06z"/><path d="m26.28 15.6-1.72-.71c-.38-.15-.82.02-.98.41-.16.38.02.82.41.98l1.72.71c.09.04.19.06.29.06.29 0 .57-.17.69-.46.16-.39-.03-.83-.41-.99z"/><path d="m42.01 22.12-1.72-.71c-.38-.16-.82.02-.98.41-.16.38.02.82.41.98l1.72.71c.09.04.19.06.29.06.29 0 .57-.17.69-.46.16-.4-.02-.84-.41-.99z"/><path d="m25.42 19.94c.41 0 .75-.34.75-.75s-.34-.75-.75-.75h-1.86c-.41 0-.75.34-.75.75s.34.75.75.75z"/><path d="m40.58 18.44c-.41 0-.75.34-.75.75s.34.75.75.75h1.86c.41 0 .75-.34.75-.75s-.34-.75-.75-.75z"/><path d="m25.71 21.4-1.72.71c-.38.16-.56.6-.41.98.12.29.4.46.69.46.1 0 .19-.02.29-.06l1.72-.71c.38-.16.56-.6.41-.98-.16-.37-.6-.55-.98-.4z"/><path d="m39.31 16.58c.12.29.4.46.69.46.1 0 .19-.02.29-.06l1.72-.71c.38-.16.56-.6.41-.98-.16-.38-.6-.56-.98-.41l-1.72.71c-.38.17-.56.61-.41.99z"/><path d="m38.36 14.58c.19 0 .38-.07.53-.22l1.32-1.32c.29-.29.29-.77 0-1.06s-.77-.29-1.06 0l-1.32 1.32c-.29.29-.29.77 0 1.06.15.15.34.22.53.22z"/><path d="m35.62 12.88c.09.04.19.06.29.06.29 0 .57-.17.69-.46l.71-1.72c.16-.38-.02-.82-.41-.98-.38-.15-.82.02-.98.41l-.71 1.72c-.16.37.02.81.41.97z"/><path d="m17.82 46.05c.41 0 .75-.34.75-.75s-.34-.75-.75-.75h-11.07v-1.81c0-.41-.34-.75-.75-.75h-4c-.41 0-.75.34-.75.75v19.94c0 .41.34.75.75.75h4c.41 0 .75-.34.75-.75v-1.81h11.07c.41 0 .75-.34.75-.75s-.34-.75-.75-.75h-11.07v-13.32zm-15.07 15.88v-18.44h2.5v18.44z"/></g></svg>