<svg id="Capa_1" enable-background="new 0 0 512 512" height="512" viewBox="0 0 512 512" width="512" xmlns="http://www.w3.org/2000/svg"><g><path d="m382.008 277.431c.982.432 2.007.636 3.015.636 2.885 0 5.635-1.674 6.87-4.484l37.395-85.069c1.02-2.319.799-4.996-.586-7.118s-3.747-3.4-6.28-3.4h-46.799c-4.143 0-7.5 3.358-7.5 7.5s3.357 7.5 7.5 7.5h35.31l-32.772 74.552c-1.668 3.791.055 8.216 3.847 9.883z"/><path d="m284.556 190.769c-.494-5.931-3.997-10.748-8.924-12.274-2.331-.723-8.364-1.659-13.978 5.23-4.849 5.949-28.927 49.45-33.705 58.11-1.281 2.323-1.24 5.151.109 7.436s3.805 3.687 6.458 3.687h34.993c-.045 6.219-.093 12.2-.139 17.543-.035 4.142 3.293 7.528 7.436 7.564h.065c4.112 0 7.463-3.315 7.499-7.435.027-3.198.082-9.695.14-17.672h3.428c4.143 0 7.5-3.358 7.5-7.5s-3.357-7.5-7.5-7.5h-3.327c.126-20.933.202-44.11-.055-47.189zm-14.949 47.189h-22.353c8.164-14.635 17.349-30.809 22.462-39.245.04 8.47-.016 23.592-.109 39.245z"/><path d="m223.964 211.416c.057-.245.1-.493.133-.742l.421-3.29c.04-.315.061-.633.061-.952 0-16.138-13.13-29.268-29.268-29.268-13.954 0-26.032 9.926-28.718 23.602-.799 4.064 1.85 8.007 5.914 8.805 4.066.797 8.007-1.849 8.805-5.913 1.309-6.66 7.196-11.494 14-11.494 7.724 0 14.035 6.169 14.262 13.84l-.304 2.367c-1.108 4.487-3.731 9.705-7.801 15.519-13.499 19.287-21.557 29.838-25.886 35.507-5.307 6.948-7.094 9.288-5.773 13.58.761 2.47 2.639 4.368 5.152 5.205 1.009.336 2.191.732 18.484.732 6.441 0 15.248-.062 27.333-.214 4.143-.052 7.458-3.452 7.405-7.594-.051-4.11-3.398-7.406-7.497-7.406-.032 0-.064 0-.096 0-10.335.13-21.377.197-29.584.194 4.793-6.339 12.108-16.199 22.751-31.405 5.278-7.541 8.712-14.632 10.206-21.073z"/><path d="m312.334 278.899c2.981 0 5.802-1.791 6.971-4.73l34.167-85.901c1.531-3.849-.348-8.21-4.197-9.741-3.847-1.529-8.209.348-9.74 4.197l-34.167 85.902c-1.531 3.849.348 8.21 4.197 9.741.909.361 1.846.532 2.769.532z"/><path d="m455.568 77.852c-2.732-3.114-7.471-3.425-10.584-.694-3.114 2.731-3.426 7.469-.695 10.584 35.593 40.592 54.275 92.763 52.603 146.904-1.679 54.381-23.801 105.528-62.292 144.02-17.423 17.421-37.395 31.514-59.42 41.941-1.781-2.3-3.879-4.372-6.257-6.143l-9.503-7.148c23.183-9.724 44.018-23.742 62.054-41.777 75.821-75.822 75.821-199.193 0-275.015-73.013-73.012-190.379-76.268-267.192-7.408-3.085 2.765-3.344 7.506-.579 10.591 2.765 3.083 7.506 3.343 10.591.578 70.886-63.542 179.194-60.535 246.574 6.845 69.974 69.974 69.974 183.829 0 253.802-18.767 18.767-40.815 32.811-65.54 41.781l-32.982-24.81c-9.052-6.809-21.817-5.805-29.695 2.333l-26.679 27.569c-.813.84-2.122 1.003-3.117.384-57.695-35.886-107.16-85.351-143.047-143.047-.618-.993-.456-2.304.385-3.117l27.569-26.68c8.139-7.877 9.142-20.642 2.333-29.694l-24.813-32.986c6.485-17.866 15.731-34.505 27.516-49.476 2.562-3.254 2.001-7.97-1.253-10.532s-7.971-2.001-10.532 1.254c-10.784 13.697-19.611 28.68-26.33 44.666l-7.127-9.474c-1.779-2.389-3.858-4.495-6.164-6.282 10.429-22.027 24.52-42.004 41.941-59.425 38.022-38.022 88.532-60.122 142.225-62.23 53.392-2.102 105.176 15.679 145.81 50.052 3.163 2.675 7.895 2.279 10.569-.882 2.676-3.162 2.28-7.894-.882-10.57-43.503-36.8-98.926-55.829-156.086-53.589-57.478 2.257-111.546 25.913-152.246 66.612-18.7 18.701-33.818 40.163-44.994 63.837-1.276-.25-2.572-.432-3.884-.527-9.434-.688-18.658 2.753-25.339 9.433l-37.681 37.681c-5.893 5.894-9.556 13.554-10.315 21.569-2.327 24.592 3.391 52.578 16.995 83.18 1.684 3.785 6.115 5.49 9.9 3.807s5.489-6.115 3.807-9.9c-12.545-28.219-17.85-53.679-15.768-75.674.431-4.549 2.558-8.944 5.989-12.375l37.681-37.681c3.597-3.598 8.582-5.443 13.642-5.079 5.075.369 9.728 2.921 12.789 7.031l42.561 56.578c2.27 3.017 1.936 7.272-.778 9.897l-27.569 26.68c-5.882 5.692-7.014 14.868-2.689 21.819 37.094 59.637 88.223 110.767 147.861 147.861 6.95 4.324 16.127 3.19 21.818-2.69l26.679-27.569c2.626-2.713 6.883-3.047 9.898-.778l56.608 42.582c4.08 3.039 6.633 7.692 7.002 12.766s-1.482 10.047-5.08 13.644l-37.679 37.68c-3.468 3.467-8.085 5.614-13.001 6.047-86.253 7.604-194.319-99.309-195.399-100.389-.396-.395-39.864-40.107-69.2-90.523-2.083-3.58-6.676-4.794-10.255-2.71-3.58 2.083-4.793 6.674-2.71 10.254 30.307 52.085 69.888 91.916 71.558 93.586 1.149 1.149 28.583 28.44 67.7 55.167 48.624 33.221 92.037 50.008 129.249 50.007 3.512 0 6.973-.15 10.373-.449 8.42-.741 16.336-4.428 22.292-10.382l37.679-37.681c6.68-6.68 10.119-15.916 9.433-25.339-.095-1.311-.277-2.605-.526-3.88 23.673-11.176 45.132-26.295 63.837-44.998 41.202-41.201 64.882-95.951 66.679-154.163 1.788-57.95-18.213-113.798-56.318-157.256z"/></g></svg>