<svg id="Layer_1" enable-background="new 0 0 500 500" viewBox="0 0 500 500" xmlns="http://www.w3.org/2000/svg"><g><path d="m379.993 437.882h-259.986c-4.659 0-8.433-3.773-8.433-8.432v-326.253c0-22.37 3.854-44.381 11.454-65.422 2.756-7.639 10.161-12.775 18.425-12.775h217.095c8.262 0 15.664 5.134 18.426 12.772 7.6 21.049 11.452 43.061 11.452 65.425v326.253c.001 4.659-3.774 8.432-8.433 8.432zm-251.555-16.863h243.123v-317.822c0-20.408-3.516-40.491-10.447-59.694-.349-.965-1.405-1.638-2.566-1.638h-217.095c-1.163 0-2.217.673-2.562 1.633-6.936 19.207-10.453 39.29-10.453 59.7z"/><path d="m303.052 385.16h-106.104c-18.209 0-33.025-14.816-33.025-33.025s14.815-33.027 33.025-33.027h106.103c18.209 0 33.025 14.818 33.025 33.027 0 18.21-14.815 33.025-33.024 33.025zm-106.104-49.186c-8.912 0-16.162 7.249-16.162 16.162 0 8.912 7.249 16.162 16.162 16.162h106.103c8.912 0 16.162-7.249 16.162-16.162 0-8.912-7.249-16.162-16.162-16.162z"/><path d="m250 307.866c-4.659 0-8.432-3.773-8.432-8.431v-18.62c0-4.659 3.773-8.432 8.432-8.432 4.657 0 8.431 3.773 8.431 8.432v18.62c0 4.658-3.774 8.431-8.431 8.431z"/><path d="m281.109 307.866c-4.657 0-8.431-3.773-8.431-8.431v-18.62c0-4.659 3.775-8.432 8.431-8.432 4.659 0 8.432 3.773 8.432 8.432v18.62c0 4.658-3.773 8.431-8.432 8.431z"/><path d="m312.219 307.866c-4.657 0-8.432-3.773-8.432-8.431v-18.62c0-4.659 3.775-8.432 8.432-8.432 4.659 0 8.433 3.773 8.433 8.432v18.62c0 4.658-3.775 8.431-8.433 8.431z"/><path d="m218.891 307.866c-4.659 0-8.433-3.773-8.433-8.431v-18.62c0-4.659 3.775-8.432 8.433-8.432 4.657 0 8.432 3.773 8.432 8.432v18.62c-.001 4.658-3.775 8.431-8.432 8.431z"/><path d="m187.783 307.866c-4.659 0-8.432-3.773-8.432-8.431v-18.62c0-4.659 3.773-8.432 8.432-8.432 4.657 0 8.431 3.773 8.431 8.432v18.62c.001 4.658-3.774 8.431-8.431 8.431z"/><path d="m320.929 89.513h-199.589c-4.657 0-8.432-3.774-8.432-8.433 0-4.657 3.775-8.432 8.432-8.432h199.589c4.657 0 8.432 3.774 8.432 8.432 0 4.659-3.775 8.433-8.432 8.433z"/><path d="m357.508 475h-215.016c-17.05 0-30.919-13.869-30.919-30.917v-14.633c0-4.657 3.775-8.432 8.433-8.432h259.987c4.659 0 8.433 3.775 8.433 8.432v14.633c.001 17.048-13.87 30.917-30.918 30.917zm-229.07-37.118v6.201c0 7.749 6.305 14.054 14.054 14.054h215.016c7.749 0 14.054-6.305 14.054-14.054v-6.201z"/></g></svg>